<svg xmlns="http://www.w3.org/2000/svg" width="18" height="16" viewBox="0 0 18 16"> <g fill="none" fill-rule="evenodd" stroke-linecap="round" stroke-linejoin="round"> <g stroke="currentColor" stroke-width="1.5"> <g> <g> <path d="M8 14c-.228 0-.447-.081-.619-.229-.646-.555-1.27-1.078-1.819-1.539l-.003-.002c-1.612-1.351-3.004-2.518-3.972-3.667C.504 7.278 0 6.06 0 4.729 0 3.436.45 2.243 1.27 1.37 2.097.487 3.233 0 4.47 0c.923 0 1.77.287 2.514.853.375.286.716.636 1.016 1.044.3-.408.64-.758 1.016-1.044C9.761.287 10.606 0 11.53 0c1.236 0 2.373.487 3.2 1.37.82.873 1.27 2.066 1.27 3.36 0 1.33-.504 2.548-1.587 3.833-.968 1.15-2.36 2.316-3.972 3.667-.55.461-1.175.984-1.823 1.542-.17.147-.39.228-.618.228" transform="translate(-656 -1185) translate(657 1185) translate(0 1)"> </path></g> </g> </g> </g> </svg>